<mxfile host="Electron" modified="2023-12-25T12:25:00.312Z" agent="Mozilla/5.0 (Windows NT 10.0; Win64; x64) AppleWebKit/537.36 (KHTML, like Gecko) draw.io/22.1.2 Chrome/114.0.5735.289 Electron/25.9.4 Safari/537.36" etag="QqfFRxy0WotceGNjnqRk" version="22.1.2" type="device">
  <diagram name="第 1 页" id="M1ARvg7j23dJQ8oXmpPu">
    <mxGraphModel dx="537" dy="901" grid="1" gridSize="10" guides="1" tooltips="1" connect="1" arrows="1" fold="1" page="1" pageScale="1" pageWidth="1169" pageHeight="827" math="0" shadow="0">
      <root>
        <mxCell id="0" />
        <mxCell id="1" parent="0" />
        <mxCell id="mFZofLNwEkIYwEjCU1TK-1" value="" style="ellipse;whiteSpace=wrap;html=1;fillColor=#d5e8d4;strokeColor=#82b366;" vertex="1" parent="1">
          <mxGeometry x="140" y="140" width="480" height="130" as="geometry" />
        </mxCell>
        <mxCell id="mFZofLNwEkIYwEjCU1TK-24" value="" style="group" vertex="1" connectable="0" parent="1">
          <mxGeometry x="310" y="480" width="140" height="160" as="geometry" />
        </mxCell>
        <mxCell id="mFZofLNwEkIYwEjCU1TK-2" value="" style="rounded=1;whiteSpace=wrap;html=1;fontStyle=1;fillColor=#f8cecc;strokeColor=#b85450;" vertex="1" parent="mFZofLNwEkIYwEjCU1TK-24">
          <mxGeometry width="140" height="160" as="geometry" />
        </mxCell>
        <mxCell id="mFZofLNwEkIYwEjCU1TK-3" value="" style="rounded=1;whiteSpace=wrap;html=1;fillColor=#fff2cc;strokeColor=#d6b656;" vertex="1" parent="mFZofLNwEkIYwEjCU1TK-24">
          <mxGeometry x="20" y="40" width="100" height="100" as="geometry" />
        </mxCell>
        <mxCell id="mFZofLNwEkIYwEjCU1TK-4" value="Java 线程" style="text;html=1;strokeColor=none;fillColor=none;align=center;verticalAlign=middle;whiteSpace=wrap;rounded=0;fontStyle=1" vertex="1" parent="mFZofLNwEkIYwEjCU1TK-24">
          <mxGeometry x="40" y="6" width="60" height="30" as="geometry" />
        </mxCell>
        <mxCell id="mFZofLNwEkIYwEjCU1TK-21" value="工作内存" style="text;html=1;strokeColor=none;fillColor=none;align=center;verticalAlign=middle;whiteSpace=wrap;rounded=0;fontStyle=1" vertex="1" parent="mFZofLNwEkIYwEjCU1TK-24">
          <mxGeometry x="40" y="50" width="60" height="30" as="geometry" />
        </mxCell>
        <mxCell id="mFZofLNwEkIYwEjCU1TK-23" value="变量副本" style="rounded=1;whiteSpace=wrap;html=1;fontStyle=1;fillColor=#e1d5e7;strokeColor=#9673a6;" vertex="1" parent="mFZofLNwEkIYwEjCU1TK-24">
          <mxGeometry x="35" y="90" width="70" height="30" as="geometry" />
        </mxCell>
        <mxCell id="mFZofLNwEkIYwEjCU1TK-25" value="" style="group" vertex="1" connectable="0" parent="1">
          <mxGeometry x="480" y="480" width="140" height="160" as="geometry" />
        </mxCell>
        <mxCell id="mFZofLNwEkIYwEjCU1TK-26" value="" style="rounded=1;whiteSpace=wrap;html=1;fontStyle=1;fillColor=#f8cecc;strokeColor=#b85450;" vertex="1" parent="mFZofLNwEkIYwEjCU1TK-25">
          <mxGeometry width="140" height="160" as="geometry" />
        </mxCell>
        <mxCell id="mFZofLNwEkIYwEjCU1TK-27" value="" style="rounded=1;whiteSpace=wrap;html=1;fillColor=#fff2cc;strokeColor=#d6b656;" vertex="1" parent="mFZofLNwEkIYwEjCU1TK-25">
          <mxGeometry x="20" y="40" width="100" height="100" as="geometry" />
        </mxCell>
        <mxCell id="mFZofLNwEkIYwEjCU1TK-28" value="Java 线程" style="text;html=1;strokeColor=none;fillColor=none;align=center;verticalAlign=middle;whiteSpace=wrap;rounded=0;fontStyle=1" vertex="1" parent="mFZofLNwEkIYwEjCU1TK-25">
          <mxGeometry x="40" y="6" width="60" height="30" as="geometry" />
        </mxCell>
        <mxCell id="mFZofLNwEkIYwEjCU1TK-29" value="工作内存" style="text;html=1;strokeColor=none;fillColor=none;align=center;verticalAlign=middle;whiteSpace=wrap;rounded=0;fontStyle=1" vertex="1" parent="mFZofLNwEkIYwEjCU1TK-25">
          <mxGeometry x="40" y="50" width="60" height="30" as="geometry" />
        </mxCell>
        <mxCell id="mFZofLNwEkIYwEjCU1TK-30" value="变量副本" style="rounded=1;whiteSpace=wrap;html=1;fontStyle=1;fillColor=#e1d5e7;strokeColor=#9673a6;" vertex="1" parent="mFZofLNwEkIYwEjCU1TK-25">
          <mxGeometry x="35" y="90" width="70" height="30" as="geometry" />
        </mxCell>
        <mxCell id="mFZofLNwEkIYwEjCU1TK-31" value="" style="group" vertex="1" connectable="0" parent="1">
          <mxGeometry x="140" y="480" width="140" height="160" as="geometry" />
        </mxCell>
        <mxCell id="mFZofLNwEkIYwEjCU1TK-32" value="" style="rounded=1;whiteSpace=wrap;html=1;fontStyle=1;fillColor=#f8cecc;strokeColor=#b85450;" vertex="1" parent="mFZofLNwEkIYwEjCU1TK-31">
          <mxGeometry width="140" height="160" as="geometry" />
        </mxCell>
        <mxCell id="mFZofLNwEkIYwEjCU1TK-33" value="" style="rounded=1;whiteSpace=wrap;html=1;fillColor=#fff2cc;strokeColor=#d6b656;" vertex="1" parent="mFZofLNwEkIYwEjCU1TK-31">
          <mxGeometry x="20" y="40" width="100" height="100" as="geometry" />
        </mxCell>
        <mxCell id="mFZofLNwEkIYwEjCU1TK-34" value="Java 线程" style="text;html=1;strokeColor=none;fillColor=none;align=center;verticalAlign=middle;whiteSpace=wrap;rounded=0;fontStyle=1" vertex="1" parent="mFZofLNwEkIYwEjCU1TK-31">
          <mxGeometry x="40" y="6" width="60" height="30" as="geometry" />
        </mxCell>
        <mxCell id="mFZofLNwEkIYwEjCU1TK-35" value="工作内存" style="text;html=1;strokeColor=none;fillColor=none;align=center;verticalAlign=middle;whiteSpace=wrap;rounded=0;fontStyle=1" vertex="1" parent="mFZofLNwEkIYwEjCU1TK-31">
          <mxGeometry x="40" y="50" width="60" height="30" as="geometry" />
        </mxCell>
        <mxCell id="mFZofLNwEkIYwEjCU1TK-36" value="变量副本" style="rounded=1;whiteSpace=wrap;html=1;fontStyle=1;fillColor=#e1d5e7;strokeColor=#9673a6;" vertex="1" parent="mFZofLNwEkIYwEjCU1TK-31">
          <mxGeometry x="35" y="90" width="70" height="30" as="geometry" />
        </mxCell>
        <mxCell id="mFZofLNwEkIYwEjCU1TK-37" value="Save 和 Load 操作" style="rounded=0;whiteSpace=wrap;html=1;fontStyle=1;fillColor=#ffe6cc;strokeColor=#d79b00;" vertex="1" parent="1">
          <mxGeometry x="140" y="350" width="480" height="50" as="geometry" />
        </mxCell>
        <mxCell id="mFZofLNwEkIYwEjCU1TK-39" value="" style="shape=flexArrow;endArrow=classic;startArrow=classic;html=1;rounded=0;width=8;fillColor=#dae8fc;strokeColor=#6c8ebf;" edge="1" parent="1">
          <mxGeometry width="100" height="100" relative="1" as="geometry">
            <mxPoint x="209.5" y="480" as="sourcePoint" />
            <mxPoint x="209.5" y="400" as="targetPoint" />
          </mxGeometry>
        </mxCell>
        <mxCell id="mFZofLNwEkIYwEjCU1TK-40" value="" style="shape=flexArrow;endArrow=classic;startArrow=classic;html=1;rounded=0;width=8;fillColor=#dae8fc;strokeColor=#6c8ebf;" edge="1" parent="1">
          <mxGeometry width="100" height="100" relative="1" as="geometry">
            <mxPoint x="379.5" y="350" as="sourcePoint" />
            <mxPoint x="379.5" y="270" as="targetPoint" />
          </mxGeometry>
        </mxCell>
        <mxCell id="mFZofLNwEkIYwEjCU1TK-41" value="" style="shape=flexArrow;endArrow=classic;startArrow=classic;html=1;rounded=0;width=8;fillColor=#dae8fc;strokeColor=#6c8ebf;" edge="1" parent="1">
          <mxGeometry width="100" height="100" relative="1" as="geometry">
            <mxPoint x="379.5" y="480" as="sourcePoint" />
            <mxPoint x="379.5" y="400" as="targetPoint" />
          </mxGeometry>
        </mxCell>
        <mxCell id="mFZofLNwEkIYwEjCU1TK-42" value="" style="shape=flexArrow;endArrow=classic;startArrow=classic;html=1;rounded=0;width=8;fillColor=#dae8fc;strokeColor=#6c8ebf;" edge="1" parent="1">
          <mxGeometry width="100" height="100" relative="1" as="geometry">
            <mxPoint x="549.5" y="480" as="sourcePoint" />
            <mxPoint x="549.5" y="400" as="targetPoint" />
          </mxGeometry>
        </mxCell>
        <mxCell id="mFZofLNwEkIYwEjCU1TK-43" value="主内存" style="text;html=1;strokeColor=none;fillColor=none;align=center;verticalAlign=middle;whiteSpace=wrap;rounded=0;fontStyle=1;fontSize=15;" vertex="1" parent="1">
          <mxGeometry x="350" y="150" width="60" height="30" as="geometry" />
        </mxCell>
        <mxCell id="mFZofLNwEkIYwEjCU1TK-46" value="共享变量" style="rounded=1;whiteSpace=wrap;html=1;fillColor=#e1d5e7;strokeColor=#9673a6;" vertex="1" parent="1">
          <mxGeometry x="230" y="200" width="70" height="30" as="geometry" />
        </mxCell>
        <mxCell id="mFZofLNwEkIYwEjCU1TK-47" value="共享变量" style="rounded=1;whiteSpace=wrap;html=1;fillColor=#e1d5e7;strokeColor=#9673a6;" vertex="1" parent="1">
          <mxGeometry x="345" y="200" width="70" height="30" as="geometry" />
        </mxCell>
        <mxCell id="mFZofLNwEkIYwEjCU1TK-48" value="共享变量" style="rounded=1;whiteSpace=wrap;html=1;fillColor=#e1d5e7;strokeColor=#9673a6;" vertex="1" parent="1">
          <mxGeometry x="460" y="200" width="70" height="30" as="geometry" />
        </mxCell>
      </root>
    </mxGraphModel>
  </diagram>
</mxfile>
